<svg id="svg" version="1.1" xmlns="http://www.w3.org/2000/svg" xmlns:xlink="http://www.w3.org/1999/xlink" width="20" height="20" viewBox="0, 0, 400,400"><g id="svgg"><path id="path0" d="M322.435 100.608 C 321.904 100.900,309.789 112.807,295.511 127.069 L 269.553 153.000 269.811 154.386 C 269.991 155.355,270.812 156.524,272.534 158.266 C 273.890 159.637,275.926 161.713,277.058 162.879 C 278.659 164.529,290.453 176.321,294.495 180.314 C 295.842 181.644,299.448 185.287,303.708 189.619 C 308.985 194.985,309.816 195.218,312.805 192.171 C 313.792 191.164,314.924 190.039,315.320 189.671 C 315.716 189.302,318.686 186.324,321.920 183.053 C 329.113 175.777,333.293 171.606,337.662 167.344 C 339.498 165.554,344.142 160.874,347.982 156.944 C 351.822 153.015,356.028 148.842,357.329 147.671 C 359.788 145.458,364.000 140.817,364.000 140.321 C 364.000 139.707,362.052 137.217,359.906 135.088 C 358.667 133.859,357.350 132.391,356.981 131.826 C 356.611 131.262,356.140 130.800,355.935 130.800 C 355.730 130.800,348.944 124.185,340.854 116.100 C 322.909 98.164,324.480 99.485,322.435 100.608 M140.553 137.678 C 138.163 139.651,129.401 148.190,123.422 154.374 C 118.003 159.980,111.033 166.938,105.760 172.008 C 103.582 174.102,98.902 178.782,95.359 182.408 C 91.817 186.034,87.047 190.820,84.759 193.043 C 82.472 195.267,77.526 200.217,73.768 204.043 C 70.011 207.870,64.701 213.177,61.968 215.838 C 59.236 218.499,54.374 223.359,51.165 226.638 C 47.956 229.917,43.186 234.697,40.565 237.259 C 37.944 239.822,33.095 244.682,29.790 248.059 C 26.484 251.437,21.534 256.380,18.790 259.044 C 16.045 261.708,11.087 266.689,7.772 270.112 L 1.744 276.336 2.328 277.468 C 3.063 278.891,9.361 285.365,26.000 301.801 C 27.650 303.431,31.723 307.534,35.050 310.920 C 43.006 319.015,41.334 319.271,51.876 308.338 C 52.798 307.382,55.183 305.031,57.176 303.113 C 59.169 301.195,60.800 299.440,60.800 299.213 C 60.800 298.986,60.959 298.800,61.152 298.800 C 61.649 298.800,76.800 283.701,76.800 283.206 C 76.800 282.983,76.949 282.800,77.130 282.800 C 77.577 282.800,82.800 277.680,82.800 277.242 C 82.800 277.050,83.173 276.796,83.630 276.676 C 84.086 276.557,84.557 276.086,84.676 275.630 C 84.796 275.173,85.034 274.800,85.206 274.800 C 85.466 274.800,91.755 268.602,99.895 260.324 C 100.827 259.376,102.762 257.460,104.195 256.066 C 105.628 254.672,106.800 253.396,106.800 253.230 C 106.800 253.064,107.250 252.723,107.800 252.473 C 108.350 252.222,108.800 251.743,108.800 251.409 C 108.800 251.074,108.960 250.800,109.155 250.800 C 109.536 250.800,112.897 247.890,113.957 246.643 C 114.311 246.227,116.895 243.562,119.700 240.722 C 122.505 237.882,124.800 235.387,124.800 235.179 C 124.800 234.971,124.952 234.800,125.138 234.800 C 125.648 234.800,140.800 219.748,140.800 219.241 C 140.800 218.998,140.964 218.800,141.165 218.800 C 141.630 218.800,146.800 213.697,146.800 213.237 C 146.800 213.048,147.173 212.796,147.630 212.676 C 148.086 212.557,148.557 212.086,148.676 211.630 C 148.796 211.173,149.036 210.800,149.210 210.800 C 149.691 210.800,162.800 197.699,162.800 197.218 C 162.800 196.988,162.988 196.800,163.217 196.800 C 163.583 196.800,165.446 194.970,171.851 188.315 C 172.758 187.372,174.558 185.572,175.851 184.315 C 177.143 183.059,179.078 181.124,180.151 180.015 C 181.224 178.907,182.259 178.000,182.451 178.000 C 183.811 178.000,182.700 174.741,180.718 172.916 C 179.141 171.466,169.342 161.673,161.292 153.504 C 155.323 147.447,144.210 136.842,143.487 136.512 C 142.616 136.116,142.287 136.246,140.553 137.678 " stroke="none" fill="#092f57" fill-rule="evenodd"></path><path id="path1" d="M287.899 19.700 C 287.130 20.635,276.826 31.030,265.000 42.800 C 253.175 54.570,241.464 66.270,238.976 68.800 C 236.488 71.330,231.620 76.190,228.157 79.600 C 209.236 98.234,210.217 95.388,219.500 104.717 C 223.185 108.420,226.751 112.069,227.425 112.825 C 228.098 113.581,228.998 114.488,229.425 114.840 C 229.851 115.192,231.679 116.992,233.487 118.840 C 235.296 120.688,237.546 122.927,238.487 123.816 C 239.429 124.704,240.560 125.846,241.000 126.353 C 248.813 135.359,253.954 138.480,256.067 135.500 C 256.574 134.785,257.522 133.750,258.174 133.200 C 258.825 132.650,259.908 131.585,260.579 130.833 C 261.251 130.080,262.132 129.180,262.538 128.833 C 263.588 127.933,276.831 114.707,277.834 113.557 C 278.293 113.031,279.463 111.856,280.434 110.946 C 281.405 110.036,282.497 108.956,282.860 108.546 C 283.223 108.136,287.813 103.546,293.060 98.347 C 298.307 93.148,303.244 88.198,304.031 87.347 C 304.818 86.496,308.868 82.429,313.031 78.308 C 317.194 74.187,320.780 70.629,321.000 70.400 C 321.220 70.172,322.210 69.223,323.200 68.292 C 324.190 67.362,325.391 66.150,325.870 65.600 C 326.348 65.050,327.763 63.610,329.013 62.400 C 331.127 60.354,332.000 59.031,332.000 57.874 C 332.000 57.613,329.931 55.240,327.403 52.600 C 324.875 49.960,322.805 47.675,322.803 47.523 C 322.801 47.370,322.305 46.950,321.700 46.590 C 321.095 46.229,320.159 45.229,319.620 44.367 C 319.080 43.505,318.433 42.800,318.180 42.800 C 317.928 42.800,316.207 41.225,314.356 39.300 C 312.505 37.375,310.452 35.343,309.795 34.785 C 309.138 34.226,307.862 32.966,306.959 31.985 C 306.057 31.003,303.717 28.633,301.759 26.718 C 299.802 24.803,297.300 22.283,296.200 21.118 C 292.544 17.246,290.240 16.853,287.899 19.700 M175.600 216.373 C 174.527 216.700,174.163 217.046,163.741 227.633 C 159.969 231.465,156.369 235.065,155.741 235.633 C 155.114 236.202,153.923 237.417,153.095 238.333 C 152.267 239.250,151.434 240.000,151.243 240.000 C 151.051 240.000,150.439 240.585,149.882 241.300 C 149.121 242.275,135.857 255.751,128.800 262.719 C 128.470 263.044,124.510 267.089,120.000 271.708 C 115.490 276.326,111.183 280.666,110.429 281.352 C 108.881 282.761,101.402 290.263,93.234 298.600 C 90.217 301.680,87.399 304.484,86.974 304.831 C 86.548 305.178,81.790 309.963,76.400 315.464 C 71.010 320.964,66.317 325.630,65.971 325.832 C 64.061 326.949,60.000 332.105,60.000 333.413 C 60.000 334.703,61.992 337.347,65.000 340.049 C 69.434 344.032,85.666 360.401,85.842 361.066 C 85.967 361.542,86.581 362.144,87.206 362.403 C 87.831 362.661,90.524 365.055,93.191 367.721 C 99.360 373.891,99.713 374.131,101.517 373.377 C 102.773 372.852,107.971 367.949,116.506 359.238 C 123.280 352.325,133.859 341.764,135.009 340.767 C 135.664 340.199,138.540 337.266,141.400 334.248 C 149.045 326.182,155.157 320.001,155.500 319.990 C 155.665 319.985,158.500 317.172,161.800 313.738 C 165.100 310.305,178.666 296.590,191.947 283.261 C 219.005 256.107,217.466 257.810,216.667 255.899 C 216.021 254.353,177.930 215.977,177.098 216.034 C 176.824 216.053,176.150 216.206,175.600 216.373 " stroke="none" fill="#e51266" fill-rule="evenodd"></path><path id="path2" d="M119.947 5.934 C 118.106 7.658,114.350 11.377,111.600 14.199 C 108.850 17.020,105.996 19.885,105.257 20.564 C 104.518 21.244,100.085 25.625,95.404 30.300 C 90.724 34.975,86.693 38.800,86.447 38.800 C 86.201 38.800,86.000 39.011,86.000 39.269 C 86.000 39.526,85.718 40.048,85.374 40.428 C 84.437 41.464,85.030 43.917,86.576 45.400 C 87.264 46.060,88.991 47.703,90.414 49.052 C 91.836 50.400,93.570 52.110,94.266 52.852 C 94.962 53.593,96.920 55.545,98.616 57.188 C 100.312 58.831,102.426 61.036,103.313 62.088 C 104.200 63.140,105.090 64.000,105.291 64.000 C 105.705 64.000,106.800 65.011,106.800 65.393 C 106.800 65.711,123.920 82.554,124.425 82.733 C 124.631 82.807,124.800 83.097,124.800 83.379 C 124.800 83.661,125.514 84.386,126.388 84.991 C 127.261 85.596,128.074 86.403,128.195 86.784 C 128.316 87.164,129.356 88.305,130.507 89.318 C 131.658 90.331,133.500 92.075,134.600 93.194 C 135.700 94.313,137.372 95.987,138.315 96.914 C 139.258 97.841,141.418 100.029,143.115 101.776 C 144.812 103.523,146.634 105.323,147.164 105.776 C 147.695 106.229,149.093 107.590,150.271 108.800 C 158.424 117.171,158.457 117.200,160.046 117.200 C 161.390 117.200,170.800 108.564,170.800 107.331 C 170.800 107.146,171.342 106.755,172.005 106.462 C 172.668 106.168,173.388 105.596,173.605 105.191 C 173.822 104.785,175.271 103.226,176.824 101.726 C 182.483 96.263,192.000 86.703,192.000 86.482 C 192.000 86.357,193.732 84.575,195.849 82.522 C 200.451 78.060,200.522 77.587,197.097 74.200 C 195.944 73.060,194.519 71.603,193.930 70.963 C 193.342 70.323,192.397 69.354,191.830 68.808 C 191.264 68.263,190.800 67.588,190.800 67.308 C 190.800 67.029,190.660 66.800,190.490 66.800 C 190.319 66.800,186.001 62.705,180.894 57.700 C 175.787 52.695,171.202 48.229,170.704 47.776 C 169.820 46.971,166.032 42.889,164.757 41.367 C 164.404 40.945,163.748 40.303,163.300 39.940 C 162.851 39.577,162.331 39.031,162.142 38.725 C 161.954 38.420,160.810 37.367,159.600 36.385 C 158.390 35.403,157.329 34.431,157.241 34.224 C 157.154 34.017,155.482 32.307,153.525 30.424 C 151.568 28.541,148.673 25.650,147.090 24.000 C 145.508 22.350,140.105 16.905,135.084 11.900 C 124.051 0.903,124.944 1.255,119.947 5.934 M214.502 295.900 C 196.709 313.718,192.174 318.800,194.068 318.800 C 194.879 318.800,213.622 337.451,214.294 338.927 C 214.566 339.524,215.286 340.231,215.894 340.498 C 216.502 340.766,217.810 341.798,218.800 342.792 C 219.790 343.787,223.840 347.758,227.800 351.618 C 231.760 355.478,235.360 359.040,235.800 359.533 C 237.283 361.195,244.692 368.197,246.031 369.203 C 246.762 369.751,247.639 370.511,247.980 370.891 C 248.321 371.272,250.122 373.072,251.982 374.891 C 253.842 376.711,255.732 378.608,256.182 379.107 C 257.501 380.570,265.700 388.835,267.837 390.857 C 268.917 391.878,270.094 393.048,270.454 393.457 C 270.813 393.866,271.942 394.918,272.962 395.794 C 273.982 396.671,275.029 397.976,275.289 398.694 C 275.828 400.187,276.800 400.445,276.800 399.095 C 276.800 398.319,285.799 388.934,289.409 385.946 C 289.844 385.586,290.920 384.455,291.800 383.433 C 293.310 381.679,295.420 379.491,297.344 377.683 C 298.418 376.673,303.236 371.875,310.615 364.466 C 318.017 357.034,318.585 358.525,302.845 344.079 C 300.999 342.386,299.289 340.768,299.045 340.484 C 298.459 339.805,287.895 329.227,284.924 326.346 C 283.646 325.106,281.850 323.306,280.933 322.346 C 280.015 321.385,278.755 320.099,278.133 319.487 C 277.510 318.875,276.730 318.099,276.400 317.761 C 276.070 317.424,271.570 313.027,266.400 307.991 C 261.230 302.955,256.778 298.602,256.507 298.318 C 254.817 296.543,253.885 295.594,251.200 292.919 C 249.550 291.274,247.147 288.909,245.860 287.664 C 244.574 286.419,241.874 283.767,239.860 281.771 C 236.840 278.776,234.587 277.200,233.328 277.200 C 233.245 277.200,224.773 285.615,214.502 295.900 " stroke="none" fill="#09aded" fill-rule="evenodd"></path><path id="path3" d="M121.200 0.642 C 121.200 1.447,119.314 3.845,116.313 6.856 C 115.041 8.132,114.000 9.318,114.000 9.491 C 114.000 9.665,113.595 10.060,113.100 10.369 C 111.469 11.385,108.800 13.761,108.800 14.196 C 108.800 14.431,108.407 14.888,107.926 15.212 C 107.445 15.535,105.060 17.859,102.626 20.375 C 100.192 22.892,97.403 25.682,96.429 26.575 C 91.776 30.844,82.000 40.882,82.000 41.390 C 82.000 42.985,83.807 45.461,87.373 48.749 C 88.607 49.888,103.262 64.561,107.709 69.111 C 108.199 69.612,112.920 74.330,118.200 79.596 C 123.480 84.861,128.206 89.581,128.703 90.084 C 130.445 91.850,146.760 107.808,147.633 108.600 C 148.119 109.040,149.795 110.755,151.358 112.411 C 159.604 121.145,159.977 121.203,166.404 114.725 C 168.846 112.263,171.143 109.743,171.508 109.124 C 171.874 108.505,172.451 107.911,172.791 107.803 C 173.131 107.695,177.817 103.179,183.205 97.767 C 188.592 92.356,193.434 87.539,193.964 87.064 C 203.435 78.572,203.642 77.824,198.044 72.300 C 195.871 70.155,193.900 68.400,193.665 68.400 C 193.430 68.400,192.942 67.776,192.580 67.014 C 192.218 66.251,190.544 64.356,188.861 62.802 C 187.177 61.248,185.530 59.666,185.200 59.288 C 184.870 58.910,183.740 57.790,182.688 56.800 C 181.636 55.810,178.396 52.580,175.488 49.622 C 168.350 42.362,166.230 40.239,157.389 31.494 C 153.215 27.365,147.618 21.785,144.952 19.094 C 142.286 16.402,139.406 13.568,138.552 12.797 C 137.698 12.025,136.624 10.945,136.164 10.397 C 135.705 9.848,133.674 7.819,131.651 5.886 C 129.143 3.489,127.899 1.995,127.737 1.186 L 127.500 0.000 124.350 0.000 C 121.724 0.000,121.200 0.107,121.200 0.642 M135.084 11.900 C 140.105 16.905,145.508 22.350,147.090 24.000 C 148.673 25.650,151.568 28.541,153.525 30.424 C 155.482 32.307,157.154 34.017,157.241 34.224 C 157.329 34.431,158.390 35.403,159.600 36.385 C 160.810 37.367,161.954 38.420,162.142 38.725 C 162.331 39.031,162.851 39.577,163.300 39.940 C 163.748 40.303,164.404 40.945,164.757 41.367 C 166.032 42.889,169.820 46.971,170.704 47.776 C 171.202 48.229,175.787 52.695,180.894 57.700 C 186.001 62.705,190.319 66.800,190.490 66.800 C 190.660 66.800,190.800 67.029,190.800 67.308 C 190.800 67.588,191.264 68.263,191.830 68.808 C 192.397 69.354,193.342 70.323,193.930 70.963 C 194.519 71.603,195.944 73.060,197.097 74.200 C 200.522 77.587,200.451 78.060,195.849 82.522 C 193.732 84.575,192.000 86.357,192.000 86.482 C 192.000 86.703,182.483 96.263,176.824 101.726 C 175.271 103.226,173.822 104.785,173.605 105.191 C 173.388 105.596,172.668 106.168,172.005 106.462 C 171.342 106.755,170.800 107.146,170.800 107.331 C 170.800 108.564,161.390 117.200,160.046 117.200 C 158.457 117.200,158.424 117.171,150.271 108.800 C 149.093 107.590,147.695 106.229,147.164 105.776 C 146.634 105.323,144.812 103.523,143.115 101.776 C 141.418 100.029,139.258 97.841,138.315 96.914 C 137.372 95.987,135.700 94.313,134.600 93.194 C 133.500 92.075,131.658 90.331,130.507 89.318 C 129.356 88.305,128.316 87.164,128.195 86.784 C 128.074 86.403,127.261 85.596,126.388 84.991 C 125.514 84.386,124.800 83.661,124.800 83.379 C 124.800 83.097,124.631 82.807,124.425 82.733 C 123.920 82.554,106.800 65.711,106.800 65.393 C 106.800 65.011,105.705 64.000,105.291 64.000 C 105.090 64.000,104.200 63.140,103.313 62.088 C 102.426 61.036,100.312 58.831,98.616 57.188 C 96.920 55.545,94.962 53.593,94.266 52.852 C 93.570 52.110,91.836 50.400,90.414 49.052 C 88.991 47.703,87.264 46.060,86.576 45.400 C 85.030 43.917,84.437 41.464,85.374 40.428 C 85.718 40.048,86.000 39.526,86.000 39.269 C 86.000 39.011,86.201 38.800,86.447 38.800 C 86.693 38.800,90.724 34.975,95.404 30.300 C 100.085 25.625,104.518 21.244,105.257 20.564 C 105.996 19.885,108.850 17.020,111.600 14.199 C 114.350 11.377,118.106 7.658,119.947 5.934 C 124.944 1.255,124.051 0.903,135.084 11.900 M289.600 17.424 C 288.830 17.745,287.840 18.545,287.400 19.202 C 286.960 19.860,286.487 20.398,286.348 20.399 C 286.209 20.399,283.419 23.123,280.148 26.451 C 276.877 29.779,272.525 34.144,270.478 36.151 C 268.431 38.158,264.831 41.744,262.478 44.120 C 255.386 51.281,243.766 62.880,241.720 64.839 C 240.664 65.851,235.813 70.711,230.939 75.639 C 226.066 80.568,220.666 85.985,218.939 87.677 C 212.184 94.300,211.200 95.519,211.200 97.268 C 211.200 97.496,215.655 102.134,221.100 107.575 C 226.545 113.015,233.377 119.882,236.283 122.833 C 239.189 125.785,242.596 129.100,243.855 130.200 C 246.642 132.636,247.476 133.502,248.283 134.800 C 249.556 136.848,251.562 138.159,253.268 138.058 C 255.465 137.928,332.528 61.212,332.892 58.792 C 333.186 56.832,331.510 55.031,304.733 28.530 C 299.483 23.334,296.897 20.579,296.004 19.228 C 294.812 17.426,291.701 16.550,289.600 17.424 M293.400 18.514 C 293.840 18.781,295.100 19.953,296.200 21.118 C 297.300 22.283,299.802 24.803,301.759 26.718 C 303.717 28.633,306.057 31.003,306.959 31.985 C 307.862 32.966,309.138 34.226,309.795 34.785 C 310.452 35.343,312.505 37.375,314.356 39.300 C 316.207 41.225,317.928 42.800,318.180 42.800 C 318.433 42.800,319.080 43.505,319.620 44.367 C 320.159 45.229,321.095 46.229,321.700 46.590 C 322.305 46.950,322.801 47.370,322.803 47.523 C 322.805 47.675,324.875 49.960,327.403 52.600 C 329.931 55.240,332.000 57.613,332.000 57.874 C 332.000 59.031,331.127 60.354,329.013 62.400 C 327.763 63.610,326.348 65.050,325.870 65.600 C 325.391 66.150,324.190 67.362,323.200 68.292 C 322.210 69.223,321.220 70.172,321.000 70.400 C 320.780 70.629,317.194 74.187,313.031 78.308 C 308.868 82.429,304.818 86.496,304.031 87.347 C 303.244 88.198,298.307 93.148,293.060 98.347 C 287.813 103.546,283.223 108.136,282.860 108.546 C 282.497 108.956,281.405 110.036,280.434 110.946 C 279.463 111.856,278.293 113.031,277.834 113.557 C 276.831 114.707,263.588 127.933,262.538 128.833 C 262.132 129.180,261.251 130.080,260.579 130.833 C 259.908 131.585,258.825 132.650,258.174 133.200 C 257.522 133.750,256.574 134.785,256.067 135.500 C 253.954 138.480,248.813 135.359,241.000 126.353 C 240.560 125.846,239.429 124.704,238.487 123.816 C 237.546 122.927,235.296 120.688,233.487 118.840 C 231.679 116.992,229.851 115.192,229.425 114.840 C 228.998 114.488,228.098 113.581,227.425 112.825 C 226.751 112.069,223.185 108.420,219.500 104.717 C 210.217 95.388,209.236 98.234,228.157 79.600 C 231.620 76.190,236.488 71.330,238.976 68.800 C 241.464 66.270,253.175 54.570,265.000 42.800 C 276.826 31.030,287.130 20.635,287.899 19.700 C 289.407 17.866,291.566 17.400,293.400 18.514 M63.437 59.743 C 62.409 60.654,60.270 62.722,58.684 64.338 C 53.083 70.043,44.884 78.210,43.948 79.017 C 43.427 79.466,42.550 80.306,42.000 80.882 C 41.450 81.459,38.626 84.331,35.723 87.265 C 22.466 100.669,22.964 98.559,31.051 107.067 C 33.663 109.815,36.951 113.174,38.358 114.531 C 39.764 115.889,43.094 119.205,45.758 121.900 C 68.532 144.945,81.953 158.187,82.967 158.614 C 84.144 159.108,84.234 159.062,86.587 156.752 C 100.506 143.086,123.231 120.315,123.703 119.560 C 125.190 117.182,120.251 110.929,108.563 100.391 C 107.226 99.186,94.663 86.358,90.400 81.845 C 89.630 81.030,86.570 77.914,83.600 74.921 C 80.630 71.929,75.915 67.174,73.122 64.355 C 66.655 57.827,65.967 57.499,63.437 59.743 M317.867 101.436 C 315.960 103.326,314.400 105.026,314.400 105.213 C 314.400 105.401,313.860 105.874,313.200 106.264 C 312.540 106.654,312.000 107.133,312.000 107.329 C 312.000 107.709,307.561 112.000,307.168 112.000 C 307.040 112.000,306.705 112.430,306.424 112.956 C 306.142 113.482,305.482 114.142,304.956 114.424 C 304.430 114.705,304.000 115.089,304.000 115.276 C 304.000 115.710,299.727 120.000,299.295 120.000 C 299.118 120.000,298.654 120.540,298.264 121.200 C 297.874 121.860,297.407 122.400,297.227 122.400 C 297.047 122.400,295.482 123.861,293.750 125.647 C 290.766 128.723,289.318 130.179,288.265 131.163 C 286.875 132.460,283.434 135.874,283.048 136.338 C 282.802 136.634,282.179 137.293,281.665 137.803 C 281.150 138.312,280.520 138.936,280.265 139.190 C 280.009 139.443,278.827 140.584,277.637 141.725 C 270.969 148.120,266.800 152.800,266.800 153.889 C 266.800 155.338,269.080 158.165,273.293 161.938 C 273.454 162.082,274.534 163.251,275.693 164.536 C 276.852 165.820,280.033 169.060,282.763 171.736 C 285.492 174.411,290.913 179.795,294.809 183.700 C 298.705 187.605,302.097 190.800,302.347 190.800 C 302.596 190.800,302.800 191.003,302.800 191.251 C 302.800 192.453,307.336 195.930,309.085 196.069 C 311.695 196.277,311.209 196.680,326.200 181.859 C 333.900 174.246,340.345 167.879,340.523 167.709 C 340.701 167.539,345.937 162.270,352.159 156.000 C 358.381 149.730,364.020 144.096,364.690 143.479 C 366.025 142.251,366.514 140.685,366.076 139.045 C 365.860 138.239,345.497 117.396,333.206 105.400 C 332.980 105.180,331.271 103.425,329.407 101.500 L 326.019 98.000 323.677 98.000 L 321.334 98.000 317.867 101.436 M325.269 100.700 C 325.751 101.085,332.765 108.015,340.854 116.100 C 348.944 124.185,355.730 130.800,355.935 130.800 C 356.140 130.800,356.611 131.262,356.981 131.826 C 357.350 132.391,358.667 133.859,359.906 135.088 C 362.052 137.217,364.000 139.707,364.000 140.321 C 364.000 140.817,359.788 145.458,357.329 147.671 C 356.028 148.842,351.822 153.015,347.982 156.944 C 344.142 160.874,339.498 165.554,337.662 167.344 C 333.293 171.606,329.113 175.777,321.920 183.053 C 318.686 186.324,315.716 189.302,315.320 189.671 C 314.924 190.039,313.792 191.164,312.805 192.171 C 309.816 195.218,308.985 194.985,303.708 189.619 C 299.448 185.287,295.842 181.644,294.495 180.314 C 290.453 176.321,278.659 164.529,277.058 162.879 C 275.926 161.713,273.890 159.637,272.534 158.266 C 270.812 156.524,269.991 155.355,269.811 154.386 L 269.553 153.000 295.511 127.069 C 324.264 98.347,323.343 99.164,325.269 100.700 M141.823 133.691 C 140.126 134.641,134.800 139.746,134.800 140.423 C 134.800 140.630,134.612 140.800,134.383 140.800 C 133.826 140.800,122.222 152.408,121.888 153.300 C 121.743 153.685,121.394 154.005,121.113 154.010 C 120.494 154.023,116.800 157.719,116.800 158.326 C 116.800 158.562,116.260 159.074,115.599 159.464 C 114.939 159.854,114.297 160.494,114.172 160.887 C 114.048 161.280,113.553 161.807,113.073 162.059 C 112.172 162.532,110.845 163.734,107.903 166.742 C 106.966 167.700,103.844 170.850,100.965 173.742 C 98.086 176.634,95.515 179.405,95.251 179.900 C 94.988 180.395,94.609 180.800,94.410 180.800 C 94.210 180.800,92.372 182.445,90.324 184.455 C 88.276 186.465,86.195 188.376,85.700 188.701 C 85.205 189.026,84.799 189.586,84.797 189.946 C 84.796 190.306,84.254 190.908,83.594 191.283 C 82.933 191.659,82.219 192.424,82.006 192.983 C 81.794 193.543,81.412 194.000,81.159 194.000 C 80.905 194.000,79.189 195.575,77.346 197.500 C 75.503 199.425,73.721 201.270,73.387 201.600 C 73.054 201.930,72.339 202.650,71.799 203.200 C 70.578 204.445,70.749 204.279,67.447 207.399 C 65.933 208.830,64.579 210.000,64.438 210.000 C 64.297 210.000,63.850 210.616,63.445 211.368 C 63.037 212.126,62.283 212.843,61.754 212.976 C 61.229 213.107,60.800 213.480,60.800 213.804 C 60.800 214.128,60.172 214.799,59.405 215.296 C 58.638 215.793,58.003 216.380,57.995 216.600 C 57.986 216.820,56.814 218.073,55.390 219.384 C 53.965 220.694,52.798 221.954,52.795 222.184 C 52.792 222.413,52.162 223.007,51.395 223.504 C 50.628 224.001,50.000 224.669,50.000 224.990 C 50.000 225.310,49.636 225.767,49.191 226.005 C 48.746 226.243,47.287 227.509,45.948 228.819 C 44.610 230.129,43.375 231.200,43.203 231.200 C 43.031 231.200,42.592 231.830,42.227 232.600 C 41.861 233.370,41.365 234.000,41.124 234.000 C 40.882 234.000,39.478 235.215,38.003 236.700 C 36.529 238.185,34.980 239.693,34.561 240.051 C 33.399 241.045,30.800 244.050,30.800 244.398 C 30.800 244.568,30.427 244.804,29.970 244.924 C 29.514 245.043,29.044 245.512,28.925 245.966 C 28.806 246.420,28.100 247.168,27.355 247.628 C 26.610 248.089,26.000 248.726,26.000 249.045 C 26.000 249.364,25.685 249.741,25.300 249.882 C 24.411 250.207,20.824 253.665,20.810 254.209 C 20.805 254.434,20.170 254.957,19.400 255.372 C 18.630 255.787,18.000 256.301,18.000 256.514 C 18.000 256.728,16.965 257.863,15.700 259.036 C 14.435 260.209,13.220 261.362,13.000 261.598 C 12.780 261.834,12.015 262.590,11.300 263.278 C 10.585 263.966,10.000 264.774,10.000 265.074 C 10.000 265.374,9.567 265.785,9.037 265.986 C 8.507 266.187,7.748 266.903,7.350 267.576 C 6.953 268.249,6.469 268.800,6.274 268.800 C 6.080 268.800,4.848 269.880,3.536 271.200 C 2.224 272.520,0.892 273.600,0.576 273.600 C 0.120 273.600,0.000 274.309,0.000 277.000 C 0.000 280.104,0.068 280.400,0.780 280.400 C 1.256 280.400,3.791 282.672,7.280 286.226 C 10.426 289.430,14.499 293.525,16.331 295.326 C 20.131 299.062,33.674 312.627,35.911 314.939 C 36.730 315.785,38.323 317.273,39.451 318.245 L 41.501 320.013 43.651 318.916 C 44.833 318.313,45.951 317.577,46.136 317.281 C 46.321 316.984,46.992 316.278,47.628 315.712 C 48.263 315.146,48.881 314.376,48.999 314.002 C 49.118 313.628,49.665 313.117,50.214 312.867 C 50.763 312.616,51.416 311.963,51.667 311.414 C 51.917 310.865,52.456 310.309,52.865 310.179 C 53.274 310.050,53.870 309.439,54.188 308.822 C 54.507 308.206,55.133 307.606,55.579 307.490 C 56.025 307.373,56.570 306.805,56.789 306.228 C 57.009 305.652,57.506 305.062,57.894 304.918 C 58.663 304.632,60.000 303.266,60.000 302.766 C 60.000 302.594,60.362 302.339,60.804 302.199 C 61.247 302.058,61.881 301.416,62.215 300.772 C 62.548 300.127,63.094 299.600,63.429 299.600 C 63.763 299.600,64.344 299.061,64.719 298.403 C 65.093 297.744,65.542 297.204,65.716 297.203 C 65.987 297.200,66.757 296.517,69.672 293.688 C 70.293 293.086,72.803 290.330,73.446 289.545 C 73.692 289.245,74.277 288.735,74.746 288.412 C 75.216 288.088,75.600 287.598,75.600 287.322 C 75.600 287.046,76.127 286.548,76.772 286.215 C 77.416 285.881,78.057 285.251,78.196 284.813 C 78.335 284.375,78.978 283.704,79.624 283.322 C 80.271 282.940,80.800 282.414,80.800 282.153 C 80.800 281.892,81.430 281.307,82.200 280.853 C 82.970 280.399,83.600 279.756,83.600 279.424 C 83.600 279.092,84.127 278.548,84.772 278.215 C 85.416 277.881,86.050 277.274,86.179 276.865 C 86.309 276.456,86.865 275.917,87.414 275.667 C 87.963 275.416,88.618 274.759,88.870 274.206 C 89.122 273.653,89.494 273.200,89.696 273.200 C 89.898 273.200,90.776 272.480,91.647 271.600 C 92.518 270.720,93.384 270.000,93.572 270.000 C 93.760 270.000,94.017 269.595,94.145 269.100 C 94.272 268.605,94.921 267.840,95.587 267.400 C 96.253 266.960,96.798 266.380,96.799 266.110 C 96.799 265.841,97.348 265.337,98.017 264.991 C 98.687 264.645,99.434 263.924,99.678 263.388 C 99.922 262.853,100.465 262.306,100.885 262.173 C 101.305 262.040,101.838 261.516,102.068 261.009 C 102.299 260.503,102.922 259.891,103.452 259.649 C 103.982 259.407,104.589 258.754,104.801 258.198 C 105.012 257.641,105.641 257.012,106.198 256.801 C 106.754 256.589,107.417 255.962,107.669 255.408 C 107.922 254.854,108.268 254.400,108.438 254.400 C 108.850 254.400,113.200 250.106,113.200 249.700 C 113.200 249.525,113.830 249.043,114.600 248.628 C 115.370 248.213,116.000 247.663,116.000 247.405 C 116.000 247.146,116.450 246.694,117.000 246.400 C 117.550 246.106,118.000 245.708,118.000 245.517 C 118.000 245.224,119.308 243.743,121.465 241.592 C 122.762 240.299,123.971 239.086,124.325 238.725 C 124.832 238.205,126.050 236.988,126.729 236.320 C 127.020 236.034,127.708 235.350,128.258 234.800 C 129.875 233.183,129.999 233.065,131.624 231.600 C 133.231 230.150,133.604 229.788,134.774 228.540 C 135.155 228.133,136.483 226.900,137.724 225.800 C 138.965 224.700,139.985 223.594,139.990 223.343 C 139.996 223.091,140.274 222.781,140.608 222.652 C 140.942 222.524,141.572 221.815,142.007 221.077 C 142.443 220.340,143.246 219.496,143.793 219.204 C 144.339 218.911,144.883 218.368,145.001 217.997 C 145.119 217.625,145.665 217.117,146.214 216.867 C 146.763 216.616,147.409 215.979,147.650 215.450 C 147.891 214.921,148.503 214.299,149.009 214.068 C 149.516 213.838,150.040 213.305,150.173 212.885 C 150.306 212.465,150.865 211.917,151.414 211.667 C 151.963 211.416,152.609 210.779,152.850 210.250 C 153.091 209.721,153.721 209.091,154.250 208.850 C 154.779 208.609,155.420 207.955,155.674 207.396 C 155.929 206.838,156.533 206.281,157.017 206.160 C 157.501 206.038,158.123 205.518,158.398 205.003 C 158.674 204.489,159.247 203.976,159.672 203.865 C 160.098 203.754,160.650 203.122,160.900 202.461 C 161.149 201.800,161.771 201.068,162.283 200.835 C 162.794 200.602,163.416 199.963,163.667 199.414 C 163.917 198.865,164.465 198.306,164.885 198.173 C 165.305 198.040,165.838 197.516,166.068 197.009 C 166.299 196.503,166.921 195.891,167.450 195.650 C 167.979 195.409,168.618 194.759,168.870 194.206 C 169.122 193.653,169.488 193.200,169.683 193.200 C 170.150 193.200,177.200 186.197,177.200 185.734 C 177.200 185.537,177.754 185.166,178.431 184.911 C 179.109 184.655,179.760 184.075,179.878 183.623 C 179.996 183.170,180.227 182.800,180.390 182.800 C 181.893 182.800,184.800 178.563,184.800 176.371 L 184.800 174.056 178.841 168.028 C 175.563 164.713,172.713 162.000,172.508 162.000 C 172.303 162.000,171.886 161.535,171.582 160.966 C 171.277 160.397,170.527 159.672,169.914 159.356 C 169.301 159.039,168.800 158.599,168.800 158.378 C 168.800 157.861,148.951 138.000,148.434 138.000 C 148.220 138.000,147.751 137.502,147.392 136.894 C 146.218 134.907,142.979 133.044,141.823 133.691 M152.734 145.083 C 157.280 149.552,161.131 153.341,161.292 153.504 C 169.342 161.673,179.141 171.466,180.718 172.916 C 182.700 174.741,183.811 178.000,182.451 178.000 C 182.259 178.000,181.224 178.907,180.151 180.015 C 179.078 181.124,177.143 183.059,175.851 184.315 C 174.558 185.572,172.758 187.372,171.851 188.315 C 165.446 194.970,163.583 196.800,163.217 196.800 C 162.988 196.800,162.800 196.988,162.800 197.218 C 162.800 197.699,149.691 210.800,149.210 210.800 C 149.036 210.800,148.796 211.173,148.676 211.630 C 148.557 212.086,148.086 212.557,147.630 212.676 C 147.173 212.796,146.800 213.048,146.800 213.237 C 146.800 213.697,141.630 218.800,141.165 218.800 C 140.964 218.800,140.800 218.998,140.800 219.241 C 140.800 219.748,125.648 234.800,125.138 234.800 C 124.952 234.800,124.800 234.971,124.800 235.179 C 124.800 235.387,122.505 237.882,119.700 240.722 C 116.895 243.562,114.311 246.227,113.957 246.643 C 112.897 247.890,109.536 250.800,109.155 250.800 C 108.960 250.800,108.800 251.074,108.800 251.409 C 108.800 251.743,108.350 252.222,107.800 252.473 C 107.250 252.723,106.800 253.064,106.800 253.230 C 106.800 253.396,105.628 254.672,104.195 256.066 C 102.762 257.460,100.827 259.376,99.895 260.324 C 91.755 268.602,85.466 274.800,85.206 274.800 C 85.034 274.800,84.796 275.173,84.676 275.630 C 84.557 276.086,84.086 276.557,83.630 276.676 C 83.173 276.796,82.800 277.050,82.800 277.242 C 82.800 277.680,77.577 282.800,77.130 282.800 C 76.949 282.800,76.800 282.983,76.800 283.206 C 76.800 283.701,61.649 298.800,61.152 298.800 C 60.959 298.800,60.800 298.986,60.800 299.213 C 60.800 299.440,59.169 301.195,57.176 303.113 C 55.183 305.031,52.798 307.382,51.876 308.338 C 41.334 319.271,43.006 319.015,35.050 310.920 C 31.723 307.534,27.650 303.431,26.000 301.801 C 9.361 285.365,3.063 278.891,2.328 277.468 L 1.744 276.336 7.772 270.112 C 11.087 266.689,16.045 261.708,18.790 259.044 C 21.534 256.380,26.484 251.437,29.790 248.059 C 33.095 244.682,37.944 239.822,40.565 237.259 C 43.186 234.697,47.956 229.917,51.165 226.638 C 54.374 223.359,59.236 218.499,61.968 215.838 C 64.701 213.177,70.011 207.870,73.768 204.043 C 77.526 200.217,82.472 195.267,84.759 193.043 C 87.047 190.820,91.817 186.034,95.359 182.408 C 98.902 178.782,103.582 174.102,105.760 172.008 C 111.033 166.938,118.003 159.980,123.422 154.374 C 129.401 148.190,138.163 139.651,140.553 137.678 C 143.147 135.537,142.814 135.335,152.734 145.083 M233.317 160.105 C 231.863 161.477,229.666 163.651,228.436 164.935 C 227.206 166.219,225.414 168.019,224.453 168.935 C 223.492 169.851,218.992 174.365,214.453 178.966 C 204.993 188.556,199.847 193.661,197.842 195.446 C 196.347 196.777,195.770 198.230,196.145 199.722 C 196.314 200.396,219.177 223.729,225.813 230.000 C 226.163 230.330,232.116 236.270,239.043 243.200 C 245.969 250.130,251.913 256.070,252.250 256.400 C 252.588 256.730,256.258 260.420,260.406 264.600 C 264.554 268.780,268.150 272.380,268.396 272.600 C 268.642 272.820,273.409 277.590,278.989 283.200 C 284.570 288.810,289.337 293.580,289.584 293.800 C 290.317 294.453,306.141 310.602,306.864 311.435 C 307.229 311.856,309.389 313.910,311.664 316.000 C 313.939 318.090,316.700 320.773,317.800 321.963 C 318.900 323.152,323.107 327.427,327.149 331.463 C 337.015 341.314,335.072 341.487,346.853 329.700 C 351.856 324.695,357.445 319.120,359.274 317.310 C 375.593 301.167,377.778 298.350,375.888 295.887 C 375.163 294.943,356.048 275.312,353.708 273.110 C 353.539 272.950,340.980 260.402,325.800 245.226 C 310.620 230.049,297.958 217.400,297.663 217.116 C 297.367 216.832,295.531 214.980,293.582 213.000 C 291.633 211.020,289.895 209.276,289.719 209.125 C 289.544 208.974,278.468 197.960,265.107 184.649 C 235.207 154.862,237.224 156.420,233.317 160.105 M173.172 216.691 C 172.197 217.512,171.306 218.311,171.191 218.468 C 169.162 221.235,161.879 228.800,161.243 228.800 C 161.000 228.800,160.800 228.949,160.800 229.131 C 160.800 229.313,159.765 230.465,158.500 231.690 C 153.900 236.146,146.526 243.543,143.400 246.837 C 141.640 248.692,139.900 250.477,139.534 250.805 C 139.168 251.132,137.188 253.070,135.134 255.112 C 133.080 257.153,131.266 258.953,131.102 259.112 C 130.939 259.270,125.719 264.530,119.502 270.800 C 113.286 277.070,107.840 282.492,107.400 282.849 C 106.960 283.206,105.340 284.901,103.800 286.616 C 102.260 288.330,100.046 290.648,98.881 291.766 C 97.716 292.885,95.826 294.771,94.681 295.958 C 93.536 297.144,91.734 298.944,90.676 299.958 C 89.618 300.971,86.738 303.855,84.276 306.366 C 80.556 310.161,69.998 320.711,67.325 323.304 C 56.664 333.650,56.870 332.778,63.503 339.462 C 66.090 342.068,68.655 344.588,69.203 345.062 C 69.751 345.537,76.406 352.166,83.990 359.795 C 91.901 367.751,98.325 373.892,99.057 374.198 C 100.615 374.849,103.208 374.381,103.800 373.342 C 104.020 372.956,105.246 371.641,106.523 370.420 C 107.801 369.199,110.321 366.718,112.123 364.906 C 116.248 360.759,116.002 361.009,118.498 358.424 C 120.451 356.402,134.543 342.386,135.688 341.327 C 135.970 341.067,138.630 338.285,141.600 335.146 C 147.042 329.395,152.943 323.466,159.463 317.200 C 161.408 315.330,164.620 312.060,166.600 309.934 C 171.910 304.231,172.016 304.123,176.431 300.000 C 178.668 297.910,182.412 294.232,184.750 291.826 C 187.087 289.421,193.951 282.491,200.002 276.426 C 213.061 263.340,218.000 258.117,218.000 257.396 C 218.000 256.343,216.436 253.247,215.706 252.857 C 215.295 252.637,213.439 250.879,211.580 248.950 C 209.721 247.021,204.870 242.159,200.800 238.147 C 196.730 234.134,193.268 230.705,193.108 230.526 C 190.965 228.140,179.480 216.765,178.538 216.096 C 176.689 214.782,175.251 214.942,173.172 216.691 M196.844 235.261 C 216.692 255.123,217.809 256.412,216.669 258.152 C 216.353 258.633,205.228 269.933,191.947 283.261 C 178.666 296.590,165.100 310.305,161.800 313.738 C 158.500 317.172,155.665 319.985,155.500 319.990 C 155.157 320.001,149.045 326.182,141.400 334.248 C 138.540 337.266,135.664 340.199,135.009 340.767 C 133.859 341.764,123.280 352.325,116.506 359.238 C 107.971 367.949,102.773 372.852,101.517 373.377 C 99.713 374.131,99.360 373.891,93.191 367.721 C 90.524 365.055,87.831 362.661,87.206 362.403 C 86.581 362.144,85.967 361.542,85.842 361.066 C 85.666 360.401,69.434 344.032,65.000 340.049 C 61.992 337.347,60.000 334.703,60.000 333.413 C 60.000 332.105,64.061 326.949,65.971 325.832 C 66.317 325.630,71.010 320.964,76.400 315.464 C 81.790 309.963,86.548 305.178,86.974 304.831 C 87.399 304.484,90.217 301.680,93.234 298.600 C 101.402 290.263,108.881 282.761,110.429 281.352 C 111.183 280.666,115.490 276.326,120.000 271.708 C 124.510 267.089,128.470 263.044,128.800 262.719 C 135.857 255.751,149.121 242.275,149.882 241.300 C 150.439 240.585,151.051 240.000,151.243 240.000 C 151.434 240.000,152.267 239.250,153.095 238.333 C 153.923 237.417,155.114 236.202,155.741 235.633 C 156.369 235.065,159.969 231.465,163.741 227.633 C 175.345 215.846,174.957 216.182,177.098 216.034 C 177.372 216.015,186.258 224.667,196.844 235.261 M232.185 275.707 C 231.736 276.198,230.296 277.605,228.985 278.832 C 227.673 280.060,223.793 283.930,220.363 287.432 C 216.932 290.935,209.506 298.342,203.861 303.893 C 189.706 317.812,190.047 317.006,195.900 322.676 C 203.665 330.199,212.800 339.336,212.800 339.581 C 212.800 339.718,214.015 340.900,215.500 342.208 C 216.985 343.515,222.364 348.728,227.454 353.792 C 232.544 358.857,238.641 364.800,241.004 367.000 C 243.367 369.200,247.753 373.497,250.750 376.548 C 253.748 379.599,256.666 382.569,257.235 383.148 C 258.037 383.962,263.373 389.064,267.800 393.248 C 270.474 395.775,273.600 399.162,273.600 399.532 C 273.600 399.789,274.050 400.000,274.600 400.000 C 276.346 400.000,275.455 397.849,272.777 395.600 C 271.860 394.830,270.815 393.866,270.455 393.457 C 270.095 393.048,268.917 391.878,267.837 390.857 C 265.700 388.835,257.501 380.570,256.182 379.107 C 255.732 378.608,253.842 376.711,251.982 374.891 C 250.122 373.072,248.321 371.272,247.980 370.891 C 247.639 370.511,246.762 369.751,246.031 369.203 C 244.692 368.197,237.283 361.195,235.800 359.533 C 235.360 359.040,231.760 355.478,227.800 351.618 C 223.840 347.758,219.790 343.787,218.800 342.792 C 217.810 341.798,216.502 340.766,215.894 340.498 C 215.286 340.231,214.566 339.524,214.294 338.927 C 213.622 337.451,194.879 318.800,194.068 318.800 C 192.160 318.800,225.434 283.535,232.847 277.700 C 234.006 276.788,236.003 277.947,239.860 281.771 C 241.874 283.767,244.574 286.419,245.860 287.664 C 247.147 288.909,249.550 291.274,251.200 292.919 C 253.885 295.594,254.817 296.543,256.507 298.318 C 256.778 298.602,261.230 302.955,266.400 307.991 C 271.570 313.027,276.070 317.424,276.400 317.761 C 276.730 318.099,277.510 318.875,278.133 319.487 C 278.755 320.099,280.015 321.385,280.933 322.346 C 281.850 323.306,283.646 325.106,284.924 326.346 C 287.895 329.227,298.459 339.805,299.045 340.484 C 299.289 340.768,300.999 342.386,302.845 344.079 C 318.585 358.525,318.017 357.034,310.615 364.466 C 303.236 371.875,298.418 376.673,297.344 377.683 C 295.420 379.491,293.310 381.679,291.800 383.433 C 290.920 384.455,289.844 385.586,289.409 385.946 C 285.799 388.934,276.800 398.319,276.800 399.095 C 276.800 400.637,278.860 400.341,279.555 398.700 C 279.858 397.985,283.007 394.580,286.553 391.134 C 294.887 383.034,297.660 380.285,305.280 372.564 C 308.735 369.064,311.885 365.911,312.280 365.557 C 319.796 358.846,319.825 357.937,312.737 351.200 C 309.844 348.450,307.189 345.859,306.838 345.443 C 306.487 345.027,305.770 344.307,305.244 343.843 C 304.180 342.904,301.271 340.000,299.336 337.943 C 298.641 337.205,294.008 332.640,289.041 327.800 C 284.074 322.960,275.245 314.289,269.421 308.532 C 263.597 302.774,258.474 297.950,258.036 297.811 C 257.599 297.673,257.134 297.222,257.003 296.811 C 256.873 296.399,254.749 294.076,252.283 291.649 C 239.803 279.361,237.408 277.118,235.991 276.396 C 235.146 275.964,234.341 275.429,234.204 275.206 C 233.804 274.560,233.065 274.744,232.185 275.707 " stroke="none" fill="#8cafcd" fill-rule="evenodd"></path><path id="path4" d="M0.000 136.800 C 0.000 255.548,0.076 273.600,0.576 273.600 C 0.892 273.600,2.224 272.520,3.536 271.200 C 4.848 269.880,6.080 268.800,6.274 268.800 C 6.469 268.800,6.953 268.249,7.350 267.576 C 7.748 266.903,8.507 266.187,9.037 265.986 C 9.567 265.785,10.000 265.374,10.000 265.074 C 10.000 264.774,10.585 263.966,11.300 263.278 C 12.015 262.590,12.780 261.834,13.000 261.598 C 13.220 261.362,14.435 260.209,15.700 259.036 C 16.965 257.863,18.000 256.728,18.000 256.514 C 18.000 256.301,18.630 255.787,19.400 255.372 C 20.170 254.957,20.805 254.434,20.810 254.209 C 20.824 253.665,24.411 250.207,25.300 249.882 C 25.685 249.741,26.000 249.364,26.000 249.045 C 26.000 248.726,26.610 248.089,27.355 247.628 C 28.100 247.168,28.806 246.420,28.925 245.966 C 29.044 245.512,29.514 245.043,29.970 244.924 C 30.427 244.804,30.800 244.568,30.800 244.398 C 30.800 244.050,33.399 241.045,34.561 240.051 C 34.980 239.693,36.529 238.185,38.003 236.700 C 39.478 235.215,40.882 234.000,41.124 234.000 C 41.365 234.000,41.861 233.370,42.227 232.600 C 42.592 231.830,43.031 231.200,43.203 231.200 C 43.375 231.200,44.610 230.129,45.948 228.819 C 47.287 227.509,48.746 226.243,49.191 226.005 C 49.636 225.767,50.000 225.310,50.000 224.990 C 50.000 224.669,50.628 224.001,51.395 223.504 C 52.162 223.007,52.792 222.413,52.795 222.184 C 52.798 221.954,53.965 220.694,55.390 219.384 C 56.814 218.073,57.986 216.820,57.995 216.600 C 58.003 216.380,58.638 215.793,59.405 215.296 C 60.172 214.799,60.800 214.128,60.800 213.804 C 60.800 213.480,61.229 213.107,61.754 212.976 C 62.283 212.843,63.037 212.126,63.445 211.368 C 63.850 210.616,64.297 210.000,64.438 210.000 C 64.579 210.000,65.933 208.830,67.447 207.399 C 70.749 204.279,70.578 204.445,71.799 203.200 C 72.339 202.650,73.054 201.930,73.387 201.600 C 73.721 201.270,75.503 199.425,77.346 197.500 C 79.189 195.575,80.905 194.000,81.159 194.000 C 81.412 194.000,81.794 193.543,82.006 192.983 C 82.219 192.424,82.933 191.659,83.594 191.283 C 84.254 190.908,84.796 190.306,84.797 189.946 C 84.799 189.586,85.205 189.026,85.700 188.701 C 86.195 188.376,88.276 186.465,90.324 184.455 C 92.372 182.445,94.210 180.800,94.410 180.800 C 94.609 180.800,94.988 180.395,95.251 179.900 C 95.515 179.405,98.086 176.634,100.965 173.742 C 103.844 170.850,106.966 167.700,107.903 166.742 C 110.845 163.734,112.172 162.532,113.073 162.059 C 113.553 161.807,114.048 161.280,114.172 160.887 C 114.297 160.494,114.939 159.854,115.599 159.464 C 116.260 159.074,116.805 158.540,116.810 158.277 C 116.823 157.663,120.549 154.000,121.161 154.000 C 121.416 154.000,121.743 153.685,121.888 153.300 C 122.222 152.408,133.826 140.800,134.383 140.800 C 134.612 140.800,134.800 140.630,134.800 140.423 C 134.800 140.045,138.716 135.990,140.297 134.731 C 141.915 133.442,142.603 133.225,143.484 133.726 C 145.796 135.040,146.751 135.810,147.368 136.854 C 147.741 137.484,148.220 138.000,148.434 138.000 C 148.951 138.000,168.800 157.861,168.800 158.378 C 168.800 158.599,169.301 159.039,169.914 159.356 C 170.527 159.672,171.277 160.397,171.582 160.966 C 171.886 161.535,172.303 162.000,172.508 162.000 C 172.713 162.000,175.563 164.713,178.841 168.028 L 184.800 174.056 184.800 176.371 C 184.800 178.563,181.893 182.800,180.390 182.800 C 180.227 182.800,179.996 183.170,179.878 183.623 C 179.760 184.075,179.109 184.655,178.431 184.911 C 177.754 185.166,177.200 185.537,177.200 185.734 C 177.200 186.197,170.150 193.200,169.683 193.200 C 169.488 193.200,169.122 193.653,168.870 194.206 C 168.618 194.759,167.979 195.409,167.450 195.650 C 166.921 195.891,166.299 196.503,166.068 197.009 C 165.838 197.516,165.305 198.040,164.885 198.173 C 164.465 198.306,163.917 198.865,163.667 199.414 C 163.416 199.963,162.794 200.602,162.283 200.835 C 161.771 201.068,161.149 201.800,160.900 202.461 C 160.650 203.122,160.098 203.754,159.672 203.865 C 159.247 203.976,158.674 204.489,158.398 205.003 C 158.123 205.518,157.501 206.038,157.017 206.160 C 156.533 206.281,155.929 206.838,155.674 207.396 C 155.420 207.955,154.779 208.609,154.250 208.850 C 153.721 209.091,153.091 209.721,152.850 210.250 C 152.609 210.779,151.979 211.409,151.450 211.650 C 150.921 211.891,150.299 212.503,150.068 213.009 C 149.838 213.516,149.305 214.040,148.885 214.173 C 148.465 214.306,147.917 214.865,147.667 215.414 C 147.416 215.963,146.763 216.616,146.214 216.867 C 145.665 217.117,145.119 217.625,145.001 217.997 C 144.883 218.368,144.339 218.911,143.793 219.204 C 143.246 219.496,142.443 220.340,142.007 221.077 C 141.572 221.815,140.942 222.524,140.608 222.652 C 140.274 222.781,139.996 223.091,139.990 223.343 C 139.985 223.594,138.965 224.700,137.724 225.800 C 136.483 226.900,135.182 228.106,134.834 228.480 C 133.733 229.662,133.216 230.163,131.624 231.600 C 130.029 233.038,129.839 233.219,128.129 234.929 C 127.579 235.479,126.947 236.107,126.725 236.325 C 126.204 236.834,124.834 238.204,124.325 238.725 C 123.971 239.086,122.762 240.299,121.465 241.592 C 119.308 243.743,118.000 245.224,118.000 245.517 C 118.000 245.708,117.550 246.106,117.000 246.400 C 116.450 246.694,116.000 247.146,116.000 247.405 C 116.000 247.663,115.370 248.213,114.600 248.628 C 113.830 249.043,113.200 249.525,113.200 249.700 C 113.200 250.106,108.850 254.400,108.438 254.400 C 108.268 254.400,107.922 254.854,107.669 255.408 C 107.417 255.962,106.754 256.589,106.198 256.801 C 105.641 257.012,105.012 257.641,104.801 258.198 C 104.589 258.754,103.982 259.407,103.452 259.649 C 102.922 259.891,102.299 260.503,102.068 261.009 C 101.838 261.516,101.305 262.040,100.885 262.173 C 100.465 262.306,99.922 262.853,99.678 263.388 C 99.434 263.924,98.687 264.645,98.017 264.991 C 97.348 265.337,96.799 265.841,96.799 266.110 C 96.798 266.380,96.253 266.960,95.587 267.400 C 94.921 267.840,94.272 268.605,94.145 269.100 C 94.017 269.595,93.760 270.000,93.572 270.000 C 93.384 270.000,92.518 270.720,91.647 271.600 C 90.776 272.480,89.898 273.200,89.696 273.200 C 89.494 273.200,89.122 273.653,88.870 274.206 C 88.618 274.759,87.963 275.416,87.414 275.667 C 86.865 275.917,86.309 276.456,86.179 276.865 C 86.050 277.274,85.416 277.881,84.772 278.215 C 84.127 278.548,83.600 279.092,83.600 279.424 C 83.600 279.756,82.970 280.399,82.200 280.853 C 81.430 281.307,80.800 281.892,80.800 282.153 C 80.800 282.414,80.271 282.940,79.624 283.322 C 78.978 283.704,78.335 284.375,78.196 284.813 C 78.057 285.251,77.416 285.881,76.772 286.215 C 76.127 286.548,75.600 287.046,75.600 287.322 C 75.600 287.598,75.216 288.088,74.746 288.412 C 74.277 288.735,73.692 289.245,73.446 289.545 C 72.803 290.330,70.293 293.086,69.672 293.688 C 66.757 296.517,65.987 297.200,65.716 297.203 C 65.542 297.204,65.093 297.744,64.719 298.403 C 64.344 299.061,63.763 299.600,63.429 299.600 C 63.094 299.600,62.548 300.127,62.215 300.772 C 61.881 301.416,61.247 302.058,60.804 302.199 C 60.362 302.339,60.000 302.594,60.000 302.766 C 60.000 303.266,58.663 304.632,57.894 304.918 C 57.506 305.062,57.009 305.652,56.789 306.228 C 56.570 306.805,56.025 307.373,55.579 307.490 C 55.133 307.606,54.507 308.206,54.188 308.822 C 53.870 309.439,53.274 310.050,52.865 310.179 C 52.456 310.309,51.917 310.865,51.667 311.414 C 51.416 311.963,50.763 312.616,50.214 312.867 C 49.665 313.117,49.118 313.628,48.999 314.002 C 48.881 314.376,48.263 315.146,47.628 315.712 C 46.992 316.278,46.321 316.984,46.136 317.281 C 45.951 317.577,44.833 318.313,43.651 318.916 L 41.501 320.013 39.451 318.245 C 38.323 317.273,36.730 315.785,35.911 314.939 C 33.674 312.627,20.131 299.062,16.331 295.326 C 14.499 293.525,10.426 289.430,7.280 286.226 C 3.791 282.672,1.256 280.400,0.780 280.400 C 0.010 280.400,0.000 281.177,0.000 340.200 L 0.000 400.000 136.800 400.000 C 241.061 400.000,273.600 399.889,273.600 399.532 C 273.600 399.162,270.474 395.775,267.800 393.248 C 263.373 389.064,258.037 383.962,257.235 383.148 C 256.666 382.569,253.748 379.599,250.750 376.548 C 247.753 373.497,243.367 369.200,241.004 367.000 C 238.641 364.800,232.544 358.857,227.454 353.792 C 222.364 348.728,216.985 343.515,215.500 342.208 C 214.015 340.900,212.800 339.718,212.800 339.581 C 212.800 339.336,203.665 330.199,195.900 322.676 C 189.771 316.738,188.572 318.632,214.400 293.461 C 216.930 290.995,221.004 286.913,223.454 284.389 C 231.329 276.274,233.219 274.609,233.954 275.132 C 234.309 275.385,235.259 275.949,236.064 276.386 C 238.075 277.476,256.603 295.550,257.003 296.811 C 257.134 297.222,257.599 297.673,258.036 297.811 C 258.474 297.950,263.597 302.774,269.421 308.532 C 275.245 314.289,284.074 322.960,289.041 327.800 C 294.008 332.640,298.641 337.205,299.336 337.943 C 301.271 340.000,304.180 342.904,305.244 343.843 C 305.770 344.307,306.487 345.027,306.838 345.443 C 307.189 345.859,309.844 348.450,312.737 351.200 C 319.832 357.943,319.805 358.796,312.285 365.557 C 311.387 366.365,300.868 376.923,296.592 381.309 C 294.827 383.119,290.711 387.120,287.445 390.200 C 281.960 395.372,279.200 398.509,279.200 399.572 C 279.200 399.874,296.972 400.000,339.600 400.000 L 400.000 400.000 400.000 200.000 L 400.000 0.000 263.800 0.000 C 134.351 0.000,127.600 0.035,127.603 0.700 C 127.607 1.800,128.738 3.197,132.398 6.621 C 134.267 8.370,136.055 10.160,136.373 10.600 C 136.690 11.040,137.660 12.030,138.527 12.800 C 139.395 13.570,142.286 16.402,144.952 19.094 C 147.618 21.785,153.215 27.365,157.389 31.494 C 166.230 40.239,168.350 42.362,175.488 49.622 C 178.396 52.580,181.636 55.810,182.688 56.800 C 183.740 57.790,184.870 58.910,185.200 59.288 C 185.530 59.666,187.177 61.248,188.861 62.802 C 190.544 64.356,192.218 66.251,192.580 67.014 C 192.942 67.776,193.430 68.400,193.665 68.400 C 193.900 68.400,195.871 70.155,198.044 72.300 C 203.642 77.824,203.435 78.572,193.964 87.064 C 193.434 87.539,188.592 92.356,183.205 97.767 C 177.817 103.179,173.131 107.695,172.791 107.803 C 172.451 107.911,171.874 108.505,171.508 109.124 C 171.143 109.743,168.846 112.263,166.404 114.725 C 159.977 121.203,159.604 121.145,151.358 112.411 C 149.795 110.755,148.119 109.040,147.633 108.600 C 146.760 107.808,130.445 91.850,128.703 90.084 C 128.206 89.581,123.480 84.861,118.200 79.596 C 112.920 74.330,108.199 69.612,107.709 69.111 C 103.262 64.561,88.607 49.888,87.373 48.749 C 83.807 45.461,82.000 42.985,82.000 41.390 C 82.000 40.882,91.776 30.844,96.429 26.575 C 97.403 25.682,100.192 22.892,102.626 20.375 C 105.060 17.859,107.445 15.535,107.926 15.212 C 108.407 14.888,108.800 14.431,108.800 14.196 C 108.800 13.761,111.469 11.385,113.100 10.369 C 113.595 10.060,114.000 9.665,114.000 9.491 C 114.000 9.318,115.041 8.132,116.313 6.856 C 119.314 3.845,121.200 1.447,121.200 0.642 C 121.200 0.055,115.979 0.000,60.600 0.000 L 0.000 0.000 0.000 136.800 M294.108 17.860 C 295.039 18.443,295.892 19.058,296.004 19.228 C 296.897 20.579,299.483 23.334,304.733 28.530 C 331.510 55.031,333.186 56.832,332.892 58.792 C 332.528 61.212,255.465 137.928,253.268 138.058 C 251.562 138.159,249.556 136.848,248.283 134.800 C 247.476 133.502,246.642 132.636,243.855 130.200 C 242.596 129.100,239.189 125.785,236.283 122.833 C 233.377 119.882,226.545 113.015,221.100 107.575 C 215.655 102.134,211.200 97.496,211.200 97.268 C 211.200 95.519,212.184 94.300,218.939 87.677 C 220.666 85.985,226.066 80.568,230.939 75.639 C 235.813 70.711,240.664 65.851,241.720 64.839 C 243.766 62.880,255.386 51.281,262.478 44.120 C 264.831 41.744,268.431 38.158,270.478 36.151 C 272.525 34.144,276.877 29.779,280.148 26.451 C 283.419 23.123,286.209 20.399,286.348 20.399 C 286.487 20.398,286.960 19.860,287.400 19.202 C 288.979 16.843,291.635 16.311,294.108 17.860 M73.122 64.355 C 75.915 67.174,80.630 71.929,83.600 74.921 C 86.570 77.914,89.630 81.030,90.400 81.845 C 94.663 86.358,107.226 99.186,108.563 100.391 C 120.251 110.929,125.190 117.182,123.703 119.560 C 123.231 120.315,100.506 143.086,86.587 156.752 C 84.234 159.062,84.144 159.108,82.967 158.614 C 81.953 158.187,68.532 144.945,45.758 121.900 C 43.094 119.205,39.764 115.889,38.358 114.531 C 34.471 110.780,26.394 102.210,25.590 100.985 C 24.577 99.440,25.200 97.950,28.093 95.000 C 29.388 93.680,32.821 90.199,35.723 87.265 C 38.626 84.331,41.450 81.459,42.000 80.882 C 42.550 80.306,43.427 79.466,43.948 79.017 C 44.884 78.210,53.083 70.043,58.684 64.338 C 66.149 56.734,65.572 56.733,73.122 64.355 M329.407 101.500 C 331.271 103.425,332.980 105.180,333.206 105.400 C 345.497 117.396,365.860 138.239,366.076 139.045 C 366.514 140.685,366.025 142.251,364.690 143.479 C 364.020 144.096,358.381 149.730,352.159 156.000 C 345.937 162.270,340.701 167.539,340.523 167.709 C 340.345 167.879,333.900 174.246,326.200 181.859 C 311.209 196.680,311.695 196.277,309.085 196.069 C 307.336 195.930,302.800 192.453,302.800 191.251 C 302.800 191.003,302.596 190.800,302.347 190.800 C 302.097 190.800,298.705 187.605,294.809 183.700 C 290.913 179.795,285.492 174.411,282.763 171.736 C 280.033 169.060,276.852 165.820,275.693 164.536 C 274.534 163.251,273.454 162.082,273.293 161.938 C 269.080 158.165,266.800 155.338,266.800 153.889 C 266.800 152.800,270.969 148.120,277.637 141.725 C 278.827 140.584,280.009 139.443,280.265 139.190 C 280.520 138.936,281.150 138.312,281.665 137.803 C 282.179 137.293,282.802 136.634,283.048 136.338 C 283.434 135.874,286.875 132.460,288.265 131.163 C 289.318 130.179,290.766 128.723,293.750 125.647 C 295.482 123.861,297.047 122.400,297.227 122.400 C 297.407 122.400,297.874 121.860,298.264 121.200 C 298.654 120.540,299.118 120.000,299.295 120.000 C 299.727 120.000,304.000 115.710,304.000 115.276 C 304.000 115.089,304.430 114.705,304.956 114.424 C 305.482 114.142,306.142 113.482,306.424 112.956 C 306.705 112.430,307.040 112.000,307.168 112.000 C 307.561 112.000,312.000 107.709,312.000 107.329 C 312.000 107.133,312.540 106.654,313.200 106.264 C 313.860 105.874,314.400 105.401,314.400 105.213 C 314.400 105.026,315.960 103.326,317.867 101.436 L 321.334 98.000 323.677 98.000 L 326.019 98.000 329.407 101.500 M239.107 159.291 C 240.045 159.927,251.745 171.338,265.107 184.649 C 278.468 197.960,289.544 208.974,289.719 209.125 C 289.895 209.276,291.633 211.020,293.582 213.000 C 295.531 214.980,297.367 216.832,297.663 217.116 C 297.958 217.400,310.620 230.049,325.800 245.226 C 340.980 260.402,353.539 272.950,353.708 273.110 C 356.048 275.312,375.163 294.943,375.888 295.887 C 377.778 298.350,375.593 301.167,359.274 317.310 C 357.445 319.120,351.856 324.695,346.853 329.700 C 335.072 341.487,337.015 341.314,327.149 331.463 C 323.107 327.427,318.900 323.152,317.800 321.963 C 316.700 320.773,313.939 318.090,311.664 316.000 C 309.389 313.910,307.229 311.856,306.864 311.435 C 306.141 310.602,290.317 294.453,289.584 293.800 C 289.337 293.580,284.570 288.810,278.989 283.200 C 273.409 277.590,268.642 272.820,268.396 272.600 C 268.150 272.380,264.554 268.780,260.406 264.600 C 256.258 260.420,252.588 256.730,252.250 256.400 C 251.913 256.070,245.969 250.130,239.043 243.200 C 232.116 236.270,226.163 230.330,225.813 230.000 C 219.177 223.729,196.314 200.396,196.145 199.722 C 195.770 198.230,196.347 196.777,197.842 195.446 C 199.847 193.661,204.993 188.556,214.453 178.966 C 218.992 174.365,223.492 169.851,224.453 168.935 C 225.414 168.019,227.206 166.219,228.436 164.935 C 235.772 157.276,235.975 157.169,239.107 159.291 M178.538 216.096 C 179.480 216.765,190.965 228.140,193.108 230.526 C 193.268 230.705,196.730 234.134,200.800 238.147 C 204.870 242.159,209.721 247.021,211.580 248.950 C 213.439 250.879,215.295 252.637,215.706 252.857 C 216.436 253.247,218.000 256.343,218.000 257.396 C 218.000 258.117,213.061 263.340,200.002 276.426 C 193.951 282.491,187.087 289.421,184.750 291.826 C 182.412 294.232,178.668 297.910,176.431 300.000 C 172.016 304.123,171.910 304.231,166.600 309.934 C 164.620 312.060,161.408 315.330,159.463 317.200 C 152.943 323.466,147.042 329.395,141.600 335.146 C 138.630 338.285,135.970 341.067,135.688 341.327 C 134.543 342.386,120.451 356.402,118.498 358.424 C 116.002 361.009,116.248 360.759,112.123 364.906 C 110.321 366.718,107.801 369.199,106.523 370.420 C 105.246 371.641,104.020 372.956,103.800 373.342 C 103.208 374.381,100.615 374.849,99.057 374.198 C 98.325 373.892,91.901 367.751,83.990 359.795 C 76.406 352.166,69.751 345.537,69.203 345.062 C 68.655 344.588,66.090 342.068,63.503 339.462 C 56.870 332.778,56.664 333.650,67.325 323.304 C 69.998 320.711,80.556 310.161,84.276 306.366 C 86.738 303.855,89.618 300.971,90.676 299.958 C 91.734 298.944,93.536 297.144,94.681 295.958 C 95.826 294.771,97.716 292.885,98.881 291.766 C 100.046 290.648,102.260 288.330,103.800 286.616 C 105.340 284.901,106.960 283.206,107.400 282.849 C 107.840 282.492,113.286 277.070,119.502 270.800 C 125.719 264.530,130.939 259.270,131.102 259.112 C 131.266 258.953,133.080 257.153,135.134 255.112 C 137.188 253.070,139.168 251.132,139.534 250.805 C 139.900 250.477,141.640 248.692,143.400 246.837 C 146.526 243.543,153.900 236.146,158.500 231.690 C 159.765 230.465,160.800 229.313,160.800 229.131 C 160.800 228.949,161.000 228.800,161.243 228.800 C 161.879 228.800,169.162 221.235,171.191 218.468 C 173.283 215.615,176.431 214.599,178.538 216.096 " stroke="none" fill="#fafbfb" fill-rule="evenodd"></path></g></svg>